<?xml version="1.0" encoding="UTF-8"?>
<svg id="layer" xmlns="http://www.w3.org/2000/svg" version="1.1" viewBox="0 0 652 652">
  <!-- Generator: Adobe Illustrator 30.1.0, SVG Export Plug-In . SVG Version: 2.1.1 Build 136)  -->
  <defs>
    <style>
      .st0 {
        fill: #fff;
      }
    </style>
  </defs>
  <path class="st0" d="M566.27,385.5v-5.42h-2.19v-1.15h5.53v1.15h-2.19v5.42h-1.15ZM577.01,385.5v-4.9l-1.88,4.28h-1.25l-1.88-4.28v4.9h-1.25v-6.57h1.67l1.98,4.48,1.98-4.48h1.67v6.57h-1.04Z"/>
  <g>
    <path class="st0" d="M118.83,392.59c0,9.49-6.88,16.48-16.69,16.48s-16.69-6.99-16.69-16.48,6.88-16.48,16.69-16.48c9.8.1,16.69,7.09,16.69,16.48M92.13,392.59c0,6.15,4.28,10.33,10.01,10.33s10.01-4.17,10.01-10.33-4.17-10.33-10.01-10.33-10.01,4.17-10.01,10.33"/>
    <path class="st0" d="M143.97,394.46v13.35c0,.31-.31.63-.63.63h-4.59c-.31,0-.63-.31-.63-.63v-11.37c0-3.13-1.56-4.9-4.28-4.9-2.5,0-4.59,1.67-4.59,5.01v11.37c0,.31-.31.63-.63.63h-4.59c-.42,0-.63-.31-.63-.63v-20.65c0-.42.31-.63.63-.63h4.48c.31,0,.63.31.63.63v1.98c1.56-2.29,3.96-3.13,6.47-3.13,4.8-.21,8.34,3.34,8.34,8.34"/>
    <path class="st0" d="M154.19,408.44h-4.48c-.42,0-.63-.31-.63-.63v-31.29c0-.31.31-.63.63-.63h4.59c.42,0,.63.31.63.63v31.29c0,.42-.31.63-.73.63"/>
    <path class="st0" d="M165.14,417.62h-5.01c-.52,0-.83-.52-.63-.94l7.09-12.83-8.97-16.27c-.21-.42.1-.94.63-.94h5.21c.21,0,.52.1.63.31l5.84,10.95,5.63-10.95c.1-.21.31-.31.63-.31h5.01c.52,0,.83.52.63.94l-16.06,29.72c-.21.21-.42.31-.63.31"/>
    <path class="st0" d="M208.53,391.75h-7.3v8.03c0,2.71,1.46,3.75,3.23,3.75,1.15,0,2.4-.52,3.55-1.04.31-.21.73-.1.94.31l1.67,3.44c.1.31,0,.63-.21.83-1.77,1.15-3.96,1.98-6.78,1.98-5.42,0-8.24-3.02-8.24-8.76v-8.45h-3.55c-.42,0-.63-.31-.63-.63v-3.96c0-.42.31-.63.63-.63h3.55v-5.84c0-.42.31-.63.63-.63h4.59c.42,0,.63.31.63.63v5.84h7.3c.42,0,.63.31.63.63v3.96c0,.31-.31.52-.63.52"/>
    <path class="st0" d="M219.27,388.94c1.56-2.19,3.86-2.92,6.26-2.92,5.01,0,8.55,3.44,8.55,8.55v13.35c0,.31-.31.63-.63.63h-4.59c-.31,0-.63-.31-.63-.63v-11.37c0-3.13-1.56-4.9-4.28-4.9-2.5,0-4.59,1.67-4.59,5.01v11.37c0,.31-.31.63-.63.63h-4.59c-.42,0-.63-.31-.63-.63v-31.29c0-.42.31-.63.63-.63h4.59c.42,0,.63.31.63.63v12.2h-.1Z"/>
    <path class="st0" d="M259.43,397.49c0,.63,0,1.46-.1,1.98h-15.54c.63,3.13,2.82,4.59,5.63,4.59,1.67,0,3.55-.63,5.11-1.77.31-.21.63-.21.94.1l2.61,2.82c.21.31.21.73-.1.94-2.4,1.98-5.42,2.92-8.87,2.92-6.67,0-11.37-4.59-11.37-11.47s4.48-11.58,11.06-11.58c6.36-.1,10.64,4.59,10.64,11.47M243.78,395.4h9.7c-.52-2.82-2.19-4.38-4.8-4.38s-4.38,1.67-4.9,4.38"/>
    <path class="st0" d="M295.83,395.61h-15.23v12.2c0,.31-.31.63-.63.63h-5.01c-.42,0-.63-.31-.63-.63v-30.35c0-.42.31-.63.63-.63h21.9c.42,0,.63.31.63.63v4.48c0,.42-.31.63-.63.63h-16.27v7.2h15.23c.42,0,.63.31.63.63v4.48c0,.42-.31.73-.63.73"/>
    <path class="st0" d="M308.13,379.34c0,2.09-1.67,3.75-3.75,3.75s-3.75-1.67-3.75-3.75,1.67-3.75,3.75-3.75,3.75,1.67,3.75,3.75M306.67,408.44h-4.59c-.42,0-.63-.31-.63-.63v-20.65c0-.31.31-.63.63-.63h4.59c.42,0,.63.31.63.63v20.65c0,.42-.31.63-.63.63"/>
    <path class="st0" d="M333.16,394.46v13.35c0,.31-.31.63-.63.63h-4.59c-.42,0-.63-.31-.63-.63v-11.37c0-3.13-1.56-4.9-4.28-4.9-2.5,0-4.59,1.67-4.59,5.01v11.37c0,.31-.31.63-.63.63h-4.59c-.42,0-.63-.31-.63-.63v-20.65c0-.42.31-.63.63-.63h4.48c.31,0,.63.31.63.63v1.98c1.56-2.29,3.96-3.13,6.47-3.13,4.8-.21,8.34,3.34,8.34,8.34"/>
    <path class="st0" d="M358.51,397.49c0,.63,0,1.46-.1,1.98h-15.54c.63,3.13,2.82,4.59,5.63,4.59,1.67,0,3.55-.63,5.11-1.77.31-.21.63-.21.83.1l2.61,2.82c.21.31.21.73-.1.94-2.4,1.98-5.42,2.92-8.87,2.92-6.67,0-11.37-4.59-11.37-11.47s4.48-11.58,11.06-11.58c6.36-.1,10.74,4.59,10.74,11.47M342.86,395.4h9.7c-.52-2.82-2.19-4.38-4.8-4.38-2.82,0-4.38,1.67-4.9,4.38"/>
    <path class="st0" d="M378.12,392.07c-.1.31-.52.52-.83.31-1.77-.73-4.17-1.46-6.36-1.46s-3.34.83-3.34,1.98c0,1.25,1.56,1.56,3.55,1.88l1.98.31c4.8.73,7.41,2.82,7.41,6.57,0,4.48-3.75,7.41-10.12,7.41-2.82,0-6.47-.52-9.28-2.19-.31-.21-.42-.63-.21-.83l1.67-3.34c.21-.31.63-.42.94-.21,1.77,1.04,3.86,1.77,6.88,1.77,2.71,0,4.07-.73,4.07-2.09,0-1.04-1.15-1.67-3.65-1.98l-1.77-.21c-5.11-.73-7.61-2.92-7.61-6.67,0-4.48,3.44-7.2,9.28-7.2,3.23,0,5.84.52,8.55,1.77.31.1.52.52.31.83l-1.46,3.34Z"/>
    <path class="st0" d="M399.5,391.75h-7.3v8.03c0,2.71,1.46,3.75,3.23,3.75,1.15,0,2.4-.52,3.55-1.04.31-.21.73-.1.94.31l1.67,3.44c.1.31,0,.63-.21.83-1.77,1.15-3.96,1.98-6.78,1.98-5.42,0-8.24-3.02-8.24-8.76v-8.45h-3.55c-.42,0-.63-.31-.63-.63v-3.96c0-.42.31-.63.63-.63h3.55v-5.84c0-.42.31-.63.63-.63h4.59c.42,0,.63.31.63.63v5.84h7.3c.42,0,.63.31.63.63v3.96c0,.31-.31.52-.63.52"/>
    <path class="st0" d="M428.28,376.84c7.41,0,11.99,2.71,11.99,8.76,0,3.23-1.98,5.74-4.59,6.67,2.92.94,5.32,3.65,5.32,7.09,0,6.05-4.28,9.07-11.89,9.07h-13.04c-.31,0-.63-.31-.63-.63v-30.35c0-.31.31-.63.63-.63h12.2ZM421.61,382.37v7.41h6.47c3.13,0,5.63-.63,5.63-3.75s-2.5-3.65-5.63-3.65h-6.47ZM421.61,395.3v7.61h7.09c3.44,0,5.74-.83,5.74-3.86s-2.19-3.75-5.74-3.75h-7.09Z"/>
    <path class="st0" d="M465.83,397.49c0,.63,0,1.46-.1,1.98h-15.54c.63,3.13,2.82,4.59,5.63,4.59,1.67,0,3.55-.63,5.11-1.77.31-.21.63-.21.83.1l2.61,2.82c.21.31.21.73-.1.94-2.4,1.98-5.42,2.92-8.87,2.92-6.67,0-11.37-4.59-11.37-11.47s4.48-11.58,11.06-11.58c6.36-.1,10.74,4.59,10.74,11.47M450.19,395.4h9.7c-.52-2.82-2.19-4.38-4.8-4.38s-4.38,1.67-4.9,4.38"/>
    <path class="st0" d="M484.5,386.96l-.63,4.48c-.1.42-.42.63-.83.52-.83-.31-1.88-.42-2.82-.42-2.71,0-4.59,1.67-4.59,4.9v11.26c0,.42-.31.63-.63.63h-4.59c-.31,0-.63-.31-.63-.63v-20.65c0-.31.31-.63.63-.63h4.38c.31,0,.63.31.63.63v1.77c1.36-2.09,3.44-3.02,6.15-3.02.94,0,1.77.1,2.5.31.31.21.52.52.42.83"/>
    <path class="st0" d="M502.23,386.96l-.63,4.48c-.1.42-.42.63-.83.52-.83-.31-1.88-.42-2.82-.42-2.71,0-4.59,1.67-4.59,4.9v11.26c0,.42-.31.63-.63.63h-4.59c-.42,0-.63-.31-.63-.63v-20.65c0-.31.31-.63.63-.63h4.38c.31,0,.63.31.63.63v1.77c1.36-2.09,3.44-3.02,6.15-3.02.94,0,1.77.1,2.5.31.21.21.42.52.42.83"/>
    <path class="st0" d="M511.72,379.34c0,2.09-1.67,3.75-3.75,3.75s-3.75-1.67-3.75-3.75,1.67-3.75,3.75-3.75,3.75,1.67,3.75,3.75M510.26,408.44h-4.59c-.31,0-.63-.31-.63-.63v-20.65c0-.31.31-.63.63-.63h4.59c.42,0,.63.31.63.63v20.65c0,.42-.31.63-.63.63"/>
    <path class="st0" d="M536.33,397.49c0,.63,0,1.46-.1,1.98h-15.54c.63,3.13,2.82,4.59,5.63,4.59,1.67,0,3.55-.63,5.11-1.77.31-.21.63-.21.83.1l2.61,2.82c.21.31.21.73-.1.94-2.4,1.98-5.42,2.92-8.87,2.92-6.67,0-11.37-4.59-11.37-11.47s4.48-11.58,11.06-11.58c6.36-.1,10.74,4.59,10.74,11.47M520.69,395.4h9.7c-.52-2.82-2.19-4.38-4.8-4.38s-4.38,1.67-4.9,4.38"/>
    <path class="st0" d="M555.94,392.07c-.1.31-.52.52-.83.31-1.77-.73-4.17-1.46-6.36-1.46s-3.34.83-3.34,1.98c0,1.25,1.56,1.56,3.55,1.88l1.98.31c4.8.73,7.41,2.82,7.41,6.57,0,4.48-3.75,7.41-10.12,7.41-2.82,0-6.47-.52-9.28-2.19-.31-.21-.42-.63-.21-.83l1.67-3.34c.21-.31.63-.42.94-.21,1.77,1.04,3.86,1.77,6.88,1.77,2.71,0,4.07-.73,4.07-2.09,0-1.04-1.15-1.67-3.65-1.98l-1.77-.21c-5.11-.73-7.61-2.92-7.61-6.67,0-4.48,3.44-7.2,9.28-7.2,3.23,0,5.84.52,8.55,1.77.31.1.52.52.31.83l-1.46,3.34Z"/>
    <path class="st0" d="M221.98,280.47c7.2,1.15,13.04-2.5,13.98-10.33.94-7.72-4.8-14.5-12.72-14.39-6.88.1-12.52,5.32-12.41,11.47.1,6.99,3.02,11.99,11.16,13.25"/>
    <path class="st0" d="M652,280.57c0,2.82-2.4,5.21-5.32,5.21s-5.32-2.4-5.32-5.21,2.29-5.21,5.32-5.21,5.32,2.29,5.32,5.21M650.75,280.57c0-2.29-1.77-4.07-3.96-4.07s-4.07,1.77-4.07,4.07,1.77,4.07,4.07,4.07c2.19-.1,3.96-1.88,3.96-4.07M648.98,279.63c0,.83-.52,1.36-1.56,1.46l1.56,1.77h-1.25l-1.46-1.77h-.52v1.77h-1.04v-4.8h2.19c1.36,0,2.09.63,2.09,1.56M645.85,279.01v1.25h1.15c.52,0,.94-.21.94-.63s-.31-.63-.94-.63h-1.15Z"/>
    <path class="st0" d="M43.11,339.71c2.09,1.36,2.92.63,5.11.83,6.15.63,14.39-1.36,20.86-4.69,6.15-3.13,14.08-9.7,17.52-15.54,3.02-5.21,4.48-10.12,5.74-16.06,1.67-8.24,2.4-23.68-11.37-35.67-12.2-10.64-34.31-8.87-46.93-2.09-5.21,2.82-10.64,5.32-15.75,7.93-2.82,1.46-6.36,2.09-9.07.63-.94-.42-1.67-1.04-2.5-1.56-.31-.21-1.56-.52-1.77-.83-.73-.94.42-.52-.83-1.67-.83-.73-1.98-.63-2.29-1.67-.1-.31.21-.94.1-1.36,0-.52-.42-1.04-.42-1.67-.1-1.77,1.25-2.92,2.29-4.17,1.46-1.56,2.5-2.61,2.29-4.69-.21-2.61,2.92-5.11,4.9-6.47,6.78-4.9,18.15-8.66,26.39-11.06,17.63-5.11,39.84-3.34,56.84,6.05,16.17,8.97,24.61,23.26,26.8,42.66.73,6.57-.42,17.73-3.02,25.24-5.74,16.17-10.85,22.95-20.76,31.81-14.39,12.93-34.84,17.52-49.02,17.52-7.2,0-18.04-.42-23.78-3.13-4.38-2.19-7.41-4.48-8.66-8.76-1.46-5.01.83-16.79,2.5-22.53,2.29-7.93,13.04-38.8,17.1-51.21,1.77-5.42,4.59-8.66,9.28-9.8,3.02-.73,7.09-.42,10.22,1.36,5.11,3.02,5.63,9.28,4.8,13.77-1.15,5.84-5.94,19.82-7.72,25.97-1.88,6.47-9.49,30.45-8.87,30.87"/>
    <path class="st0" d="M152.94,288.08c-.73-1.98-1.98-5.32-3.65-5.94-1.56-.52-3.55-3.96-7.2-3.55-4.07.52-7.09,1.46-7.2,6.67,0,3.23.63,6.47.21,9.7-1.77,15.75-3.86,23.47-5.84,30.98-1.98,7.2-6.36,18.25-8.45,25.24-1.88,6.15,3.23,10.64,9.6,10.12,1.77-.1,3.65-.63,5.84-.73,2.61-.21,5.01-2.19,7.3-4.48,2.61-2.61,3.65-5.32,4.59-7.93,1.15-3.23,1.67-4.8,2.61-8.03,1.15-3.65,3.02-8.66,4.07-12.31,2.71-9.8,5.74-16.17,11.79-21.49,6.05-5.21,11.06-8.76,17.52-12.41,1.98-1.15,4.48-2.61,5.63-4.69.52-.94.52-1.04.73-1.98.21-1.04.21-1.56-.63-2.29-.63-.52-1.56-.63-1.88-1.46-.21-.73,0-.73-.52-1.36-.52-.52-.73-.42-1.36-.73-1.36-.83-2.92-.73-4.59-.83-3.34-.42-6.47.31-9.6,1.25-5.21,1.46-14.29,5.53-16.69,6.78-1.67.94-1.88.83-2.29-.52"/>
    <path class="st0" d="M595.99,272.23c1.98.52,5.11.31,6.78-.73.73-.42,1.36-.94,1.98-1.46,3.96-3.23,6.68-7.3,9.18-11.68,1.25-2.19,1.98-4.8,2.61-7.09.52-1.77.63-4.07-.31-5.74-.63-1.15-2.09-1.04-3.13-1.46-1.36-.52-2.4-1.15-3.86-1.36-7.3-.73-9.18,4.28-9.28,8.87-.1,2.4-1.04,5.21-2.19,8.34-.52,1.36-3.23,5.84-3.75,7.2-1.04,2.71-.94,4.38,1.98,5.11"/>
    <path class="st0" d="M230.85,339.4c-.21-.21-.73-.31-1.15-.31-.52-.1-.94.31-1.36.42-.52.21-1.04.42-1.56.63-1.25.42-2.29.63-3.55.83-4.17.63-8.97,0-11.16-3.75-.94-1.67-1.04-4.28-.83-6.15.73-6.88,3.96-13.45,6.78-19.82,1.56-3.44,4.28-9.49,5.84-14.08,1.15-3.34.94-5.94-2.4-7.61-4.48-2.29-13.77-.94-17.1,1.25-3.75,2.5-6.36,7.51-8.45,11.58-4.69,9.49-9.07,24.61-9.49,30.66-.42,6.05-1.04,12.62,2.09,18.04,2.09,3.75,5.53,6.67,9.39,8.55,5.32,2.5,11.58,2.19,16.37,1.04,2.82-.63,5.53-1.56,8.14-3.02,1.15-.63,2.5-1.36,3.55-2.19.83-.73,2.09-1.56,2.82-2.5.83-1.04.42-1.98,1.04-3.02.31-.52.63-.63.52-1.25-.1-.42-.31-.63-.31-1.15.1-.73.31-.94.73-1.46.31-.42.52-1.04.83-1.56.21-.52.42-1.15.52-1.67.1-.73.1-1.56-.31-2.09-.31-.52-.52-.94-.94-1.36"/>
    <path class="st0" d="M543.84,326.67c.42-.83,2.29-2.5,3.65-3.75,16.58-14.18,33.69-31.5,39.22-52.88,1.15-4.28,1.77-8.14,1.15-12.52-.1-.94-.31-1.88-.63-2.71-1.04-3.44-2.92-6.67-5.84-8.97-4.07-3.23-9.6-3.96-14.5-2.82-4.8,1.15-9.49,3.96-13.04,7.3-6.78,6.47-13.35,16.58-17.63,25.03-6.26,12.41-11.06,25.97-14.6,39.84-.52,2.09-1.67,11.16-2.4,14.29-5.63,6.26-17.52,19.61-30.04,15.96-7.3-2.09-7.72-12.1-6.47-21.49,0,0,3.02-2.29,5.84-4.48,13.98-11.06,22.95-20.65,32.33-35.57,4.59-7.3,7.41-15.33,7.82-23.99.21-3.86-.31-7.82-1.56-11.26-.94-2.5-3.55-3.34-4.07-5.84-.42-1.88-3.02-3.02-4.9-3.75-6.67-2.61-12.41-.83-18.46,2.71-5.01,2.92-10.01,8.66-13.25,13.45-6.57,9.8-11.16,17.73-15.64,28.68-3.96,9.8-7.51,19.92-9.49,30.45-3.86.73-8.66.63-12.31-.52.63-5.94.31-12.2-1.56-18.67-1.88-6.57-6.05-12.62-12.31-15.12-1.67-.73-3.55-1.15-5.32-.83-2.29.42-3.96,1.88-6.26,2.4-1.98.42-2.29,1.98-4.38.21-.83-.73-3.34-.52-4.59-.63-4.59-.31-8.45,1.56-12.41,3.86-11.58,6.47-18.36,17.1-24.2,30.04v-.21c-3.23,7.2-10.64,16.58-21.28,23.15-4.07,2.61-10.01,4.48-15.23,4.69-4.9.1-9.7-1.25-12.41-5.42-2.5-3.86-3.02-6.88-3.02-11.37,0-5.63,2.5-14.5,6.26-19.82,4.07-5.84,11.26-9.18,20.65-5.11,3.02,1.36,7.41,4.38,11.37,4.28,5.53-.21,7.93-2.61,7.61-7.51-.31-5.63-5.32-11.68-8.55-13.66-4.59-2.92-10.64-5.01-16.27-5.01-14.08,0-45.16,18.67-45.26,51.63,0,11.16,4.07,22.22,14.5,27.53,9.49,4.8,22.53,4.28,32.33,1.04,11.06-3.65,21.49-11.89,27.22-21.38,0,.31.1.52.1.52,1.25,6.67,4.48,12.52,9.07,16.9,9.18,8.55,25.24,8.14,36.09,3.34,12.31-5.53,20.96-17.1,24.61-31.08,0,0,1.88.42,2.61.52,2.92.52,7.93.42,11.47.21l-.31,2.71c0,1.98,0,3.96.1,5.84.63,10.43,5.74,19.4,16.17,23.88,6.99,3.02,17.21,2.5,24.09-.42,6.88-2.82,14.6-8.97,19.5-15.02,1.88,7.82,5.94,14.91,15.12,17.73,6.26,1.88,17.31.73,24.3-4.48.73-.52,1.25-1.15,1.88-1.77,1.04-1.04,2.5-2.29,2.92-3.55.42-1.25-1.04-2.61-1.15-3.65s1.15-1.77.1-2.71c-1.25-1.15-2.82,0-4.07.42-.83.21-1.56.63-2.4.73-2.4.42-5.32.42-7.51-.52-4.17-1.88-5.32-4.9-5.63-7.72-.31-2.82-.42-5.63-.21-8.45.21-1.67.73-4.17,1.04-4.69M558.34,278.38c1.98-3.65,6.15-9.91,8.14-12.2,5.21-5.74,7.09-2.92,6.26-.42-2.19,6.15-11.26,25.14-19.71,35.25-.94,1.15-4.9,6.67-6.47,7.51.21-2.5,7.61-22.42,11.79-30.14M493.26,287.66c2.4-5.11,8.34-18.25,14.18-25.66,2.71-3.44,4.38-4.9,6.57-3.75,3.55,1.88-9.28,23.05-10.64,25.14-4.38,6.78-15.33,20.03-17.52,22.22.94-3.13,2.82-8.24,7.41-17.94M428.91,322.71c-.52,3.55-2.5,6.57-3.13,7.93-2.92,6.36-10.53,13.04-17.94,12.1-4.69-.63-7.61-4.28-8.66-8.76-1.25-5.21.73-13.04,2.4-17.83,2.19-6.05,8.24-15.23,16.58-18.98-.42,9.7.94,17.83,9.18,22.01.42.21.94.42,1.15.83.52.52.52,1.98.42,2.71"/>
    <path class="st0" d="M301.56,284.95c-2.29-3.02-5.21-4.9-8.03-6.47-4.8-2.61-10.22-4.07-15.75-4.07-14.71,0-28.68,9.6-28.47,24.82.21,17.42,16.27,25.14,18.15,36.3.63,3.55-.83,5.53-3.02,6.78-3.02,1.77-8.66,2.29-15.02-.52-2.71-1.15-5.42-2.4-8.97-3.02-.94-.21-2.09-.1-3.02.31-1.36.63-3.44,2.92-2.92,6.57.1.63.42,1.25.52,1.88.21.83.42,1.04.52,1.77.21.83.21.94.73,1.56.21.31.52.73.73,1.04.63.83,1.15,1.46,1.88,2.19,1.98,1.77,4.8,3.23,7.3,4.38,3.34,1.56,8.24,2.4,11.89,2.82,9.07,1.15,19.92-1.25,26.39-7.72,6.05-6.05,7.61-13.45,6.47-22.32-1.15-8.76-6.36-14.29-11.47-21.28-4.9-6.78-6.36-9.7-6.15-11.68.31-3.44,3.34-4.59,5.94-5.11,2.09-.42,4.17-.63,6.36-.63,5.63.1,7.3,1.36,8.66,1.15,1.15-.21,1.56-.52,2.82-.21,4.8,1.46,7.2-4.9,4.48-8.55"/>
    <path class="st0" d="M642.61,295.07c-.31.31-.83.63-1.04,1.04-.1.52.1,1.25-.21,1.77s-1.15.94-1.46,1.36c-.21.31-.73,1.25-.94,1.46-.31.31-.63.73-1.46.21-4.8-3.02-10.53-6.05-16.06-6.05-5.01,0-7.82,2.5-8.03,6.67-.21,4.28,3.34,10.22,6.68,15.23,6.15,9.07,11.06,14.6,10.74,25.87-.1,4.07-1.77,7.2-4.07,10.53-7.72,11.37-27.12,12.93-39.01,9.07-.52-.21-1.04-.42-1.56-.73-7.3-2.92-11.68-6.99-11.99-10.53-.31-3.65.52-7.2,4.07-9.39,8.87-5.32,11.37,6.88,21.8,3.86,3.23-1.15,5.74-3.02,5.94-7.2,0-.94-.1-1.88-.52-3.02-2.92-8.34-11.79-14.5-14.08-25.66-2.82-13.45,3.23-24.61,13.56-30.25,4.48-2.4,9.6-3.86,14.71-3.65,4.69.1,9.6,1.56,13.66,3.96,4.59,2.61,8.97,8.24,9.8,12.52.1,1.25.1,2.29-.52,2.92"/>
  </g>
</svg>